<?xml version="1.0" encoding="utf-8"?>
<!-- Generator: Adobe Illustrator 26.0.3, SVG Export Plug-In . SVG Version: 6.00 Build 0)  -->
<svg version="1.1" id="Layer_1" xmlns="http://www.w3.org/2000/svg" xmlns:xlink="http://www.w3.org/1999/xlink" x="0px" y="0px"
	 viewBox="0 0 177.7 93.12" style="enable-background:new 0 0 177.7 93.12;" xml:space="preserve">
<style type="text/css">
	.st0{display:none;}
	.st1{display:inline;}
	.st2{fill:#FFFFFF;}
	.st3{fill:#D4A938;}
	.st4{fill:#E20613;}
	.st5{fill:#312782;}
	.st6{display:inline;fill:#312782;}
	.st7{display:inline;fill:#E20613;}
</style>
<g class="st0">
	<g class="st1">
		<path class="st2" d="M41.89-103.97c-21.53,0-39.05,17.52-39.05,39.05c0,21.53,17.52,39.05,39.05,39.05S80.93-43.4,80.93-64.93
			C80.93-86.46,63.42-103.97,41.89-103.97"/>
		<path class="st3" d="M41.89-24.32c-22.39,0-40.61-18.22-40.61-40.61c0-22.39,18.22-40.61,40.61-40.61
			c22.39,0,40.61,18.22,40.61,40.61C82.5-42.53,64.28-24.32,41.89-24.32 M41.89-103.97c-21.53,0-39.05,17.52-39.05,39.05
			c0,21.53,17.52,39.05,39.05,39.05S80.93-43.4,80.93-64.93C80.93-86.46,63.42-103.97,41.89-103.97"/>
		<path class="st4" d="M72.01-86.34v20.2h6.81C78.58-73.65,76.09-80.6,72.01-86.34"/>
		<path class="st4" d="M67.66-66.13v-25.27c-2.06-2.01-4.35-3.77-6.83-5.25v22.09c2.05,2.45,3.63,5.31,4.59,8.44H67.66z"/>
		<path class="st4" d="M56.49-98.88c-2.18-0.94-4.46-1.67-6.83-2.18v18.95c2.47,0.8,4.77,1.98,6.83,3.48V-98.88z"/>
		<path class="st4" d="M45.31-83.08v-18.65c-1.13-0.1-2.27-0.16-3.42-0.16c-1.15,0-2.28,0.05-3.4,0.16V-83
			c1.21-0.19,2.45-0.28,3.71-0.28C43.25-83.28,44.29-83.21,45.31-83.08"/>
		<path class="st4" d="M34.14-101.06c-2.37,0.51-4.65,1.24-6.83,2.17v20.71c2.04-1.59,4.34-2.85,6.83-3.73V-101.06z"/>
		<path class="st4" d="M22.96-96.67c-2.48,1.48-4.77,3.25-6.83,5.25v25.29h2.83c0.87-2.82,2.23-5.42,3.99-7.69V-96.67z"/>
		<path class="st4" d="M11.79-86.36c-4.09,5.74-6.59,12.7-6.83,20.23h6.83V-86.36z"/>
		<path class="st5" d="M66.5-58.98c0,13.42-10.88,24.3-24.3,24.3c-13.42,0-24.3-10.88-24.3-24.3c0-1.62,0.16-3.21,0.46-4.74H4.96
			c0.64,19.85,16.93,35.75,36.93,35.75c20.01,0,36.29-15.9,36.93-35.75H66.03C66.33-62.19,66.5-60.61,66.5-58.98"/>
		<path class="st3" d="M42.11-36.78c-12.29,0-22.29-10-22.29-22.29c0-12.29,10-22.29,22.29-22.29c12.29,0,22.29,10,22.29,22.29
			C64.4-46.78,54.4-36.78,42.11-36.78 M42.11-80.79c-11.98,0-21.73,9.75-21.73,21.73c0,11.98,9.75,21.73,21.73,21.73
			c11.98,0,21.73-9.75,21.73-21.73C63.84-71.05,54.09-80.79,42.11-80.79"/>
		<path class="st3" d="M62.64-58.98c0,11.31-9.17,20.48-20.49,20.48c-11.31,0-20.48-9.17-20.48-20.48
			c0-11.31,9.17-20.49,20.48-20.49C53.47-79.47,62.64-70.3,62.64-58.98"/>
		<path class="st5" d="M57.86-63.67c-0.86-0.86-2.31-2.15-3.5-2.89v-1.42l-2.02,1.43v9.43h-1.99l0.74,2.07h1.25v10.71l2.02-1.43
			v-9.28h2.41c2.02,0,3.54-1.48,3.54-3.5C60.31-60.33,59.29-62.2,57.86-63.67 M56.77-57.13h-2.41v-6.72
			c0.45,0.33,1.36,1.03,2.27,1.91c1.09,1.08,1.86,2.4,1.86,3.58C58.49-57.62,57.81-57.13,56.77-57.13"/>
		<path class="st5" d="M36.15-66.51v-9.27l-2.06,1.44v8.53c0,1.43-0.79,2.36-2.02,2.36h-2.45v-4.8v-0.03h-0.16l-5.45,4.92v1.92h3.58
			v13.19l2.02-1.43v-11.76h2.85c0.99,0,1.63,0.59,1.63,1.53v17.73l2.01-1.43v-16.15c0-1.87-0.94-2.76-1.92-2.86
			C36.19-63.26,36.15-65.18,36.15-66.51 M25.59-63.46l2-1.77v1.77H25.59z"/>
		<path class="st5" d="M41.21-70.14l0,4.5v14.58c0,0.61-0.46,0.92-0.91,0.92c-0.53,0-0.83-0.34-0.83-0.92V-64.4l-2,1.43v12.07
			l0,0.03c-0.17,0.44-0.65,0.76-1.21,0.76h-2.36c-0.65,0-1.08-0.44-1.08-1.08v-8.23l-1.82,1.29v7.28c0,1.54,1.28,2.61,3.1,2.61h1.92
			c0.77,0,1.5-0.48,1.93-1.02c0.49,0.69,1.32,1.08,2.41,1.08c1.6,0,2.86-1.35,2.86-3.07v-20.3L41.21-70.14z"/>
		<path class="st5" d="M43.16-45.68c0,0.42,0.26,0.69,0.77,0.69c0.48,0,1.57-0.55,3.01-1.58c1.14-0.82,1.64-1.29,1.91-1.62
			c0.29-0.34,0.35-0.78,0.35-1.26c0-0.51-0.25-1.11-0.45-1.56l-4.45-11.87c0,0-0.3-0.73-0.3-1.57c0-0.51,0.07-1.36,0.93-2.54
			c0.63-0.86,1.59-1.77,3.16-2.91c2.38-1.73,4.17-2.29,4.86-2.29c0.79,0,1.31,0.76,1.31,1.45v1.35L52.25-68v-1.7
			c0-0.2-0.08-0.34-0.22-0.34c-0.35,0-1.62,0.78-2.99,1.77c-1.13,0.82-1.97,1.68-2.27,2.19c-0.28,0.49-0.4,1.03-0.4,1.52
			c0,0.45,0.29,1.18,0.49,1.68l3.83,10.54c0.35,0.84,0.84,2.12,0.84,2.81c0,0.89-0.25,1.7-0.91,2.38c-0.64,0.66-0.99,1.06-2.37,2.05
			c-1.38,0.98-3.08,1.99-4.7,1.99c-1.27,0-2.29-0.98-2.29-2.34c0-1.25,0.89-2.12,1.83-2.76c0.59-0.41,2.51-1.77,2.62-1.86l0,2.02
			l-2.08,1.54C43.27-46.27,43.16-45.92,43.16-45.68"/>
	</g>
	<path class="st6" d="M108.36-31.91c-0.52,0.33-1.65,0.64-2.6,0.64c-1.83,0-2.9-0.85-4.06-2.96l-2.84-5.19h-2.2v7.91h-4.24v-19.33
		h4.24v8h2.44l4.12-8h4.27l-5.01,9.44l3.33,6.05c0.43,0.76,0.8,1.13,1.53,1.13c0.43,0,1.01-0.18,1.25-0.37L108.36-31.91z"/>
	<path class="st6" d="M135.04-50.84l-5.8,19.33h-3.88l-2.9-9.8l-3.05,9.8h-3.79l-6.11-19.33h4.25l3.66,12.09
		c0.18,0.64,0.43,1.62,0.43,2.23h0.03c0.03-0.64,0.24-1.65,0.4-2.17l2.56-8.06l-1.22-4.09h4l3.45,12.03
		c0.18,0.64,0.37,1.62,0.37,2.29h0.06c0.03-0.67,0.21-1.68,0.37-2.32l3.14-12H135.04z"/>
	<path class="st6" d="M143.56-31.21c-2.08,0-4.31-0.46-6.08-1.22l0.18-3.51c1.62,0.92,3.97,1.59,5.71,1.59
		c1.95,0,3.42-0.7,3.42-2.26c0-3.88-9.5-1.59-9.5-8.7c0-3.54,2.6-5.86,7.33-5.86c1.74,0,3.72,0.43,4.92,0.82l-0.15,3.24
		c-1.44-0.55-3.03-0.95-4.49-0.95c-2.29,0-3.51,0.85-3.51,2.23c0,3.73,9.53,1.56,9.53,8.7C150.92-33.01,147.68-31.21,143.56-31.21"
		/>
	<path class="st6" d="M166.82-38.81c-1.34,0.79-3.14,1.13-5.37,1.13h-2.53v6.17h-4.25v-16.34h-1.86v-2.99h7.91
		c2.57,0,4.58,0.21,6.14,1.07c1.71,0.95,2.72,2.6,2.72,5.38C169.57-41.68,168.63-39.85,166.82-38.81 M163.92-47.18
		c-0.79-0.52-1.62-0.67-3.12-0.67h-1.89v7.27h1.95c2.78,0,4.34-0.76,4.34-3.73C165.2-45.59,164.81-46.6,163.92-47.18"/>
	<polygon class="st6" points="199.77,-34.61 199.5,-31.58 186.85,-31.58 186.85,-50.92 199.07,-50.92 199.07,-47.93 191.1,-47.93 
		191.1,-42.88 197.57,-42.88 197.57,-39.92 191.1,-39.92 191.1,-34.61 	"/>
	<path class="st6" d="M215.71-38.88c-1.34,0.79-3.14,1.13-5.38,1.13h-2.54v6.17h-4.25v-16.34h-1.86v-2.99h7.91
		c2.56,0,4.58,0.21,6.14,1.07c1.71,0.95,2.72,2.6,2.72,5.38C218.46-41.75,217.52-39.92,215.71-38.88 M212.81-47.25
		c-0.79-0.52-1.62-0.67-3.12-0.67h-1.89v7.27h1.96c2.78,0,4.34-0.76,4.34-3.73C214.09-45.67,213.7-46.67,212.81-47.25"/>
	<polygon class="st6" points="233.82,-47.93 225.85,-47.93 225.85,-42.88 232.36,-42.88 232.36,-39.92 225.85,-39.92 225.85,-31.58 
		221.6,-31.58 221.6,-50.92 233.82,-50.92 	"/>
	<rect x="177.72" y="-53.5" class="st7" width="1.3" height="24.62"/>
</g>
<g>
	<g>
		<path class="st2" d="M45.63,13.81c-21.44,0-38.88,17.44-38.88,38.88c0,21.44,17.44,38.87,38.88,38.87
			c21.44,0,38.87-17.44,38.87-38.87C84.5,31.25,67.06,13.81,45.63,13.81"/>
		<path class="st3" d="M45.63,93.12c-22.3,0-40.43-18.14-40.43-40.43c0-22.3,18.14-40.43,40.43-40.43
			c22.29,0,40.43,18.14,40.43,40.43C86.06,74.98,67.92,93.12,45.63,93.12 M45.63,13.81c-21.44,0-38.88,17.44-38.88,38.88
			c0,21.44,17.44,38.87,38.88,38.87c21.44,0,38.87-17.44,38.87-38.87C84.5,31.25,67.06,13.81,45.63,13.81"/>
		<path class="st4" d="M75.61,31.37v20.12h6.78C82.15,44,79.67,37.08,75.61,31.37"/>
		<path class="st4" d="M71.28,51.49V26.33c-2.05-2-4.33-3.75-6.8-5.23v21.99c2.04,2.44,3.61,5.29,4.57,8.4H71.28z"/>
		<path class="st4" d="M60.16,18.88c-2.17-0.93-4.44-1.66-6.8-2.17v18.86c2.46,0.79,4.75,1.97,6.8,3.46V18.88z"/>
		<path class="st4" d="M49.03,34.62V16.06c-1.12-0.1-2.26-0.16-3.41-0.16c-1.14,0-2.27,0.05-3.39,0.15V34.7
			c1.2-0.19,2.44-0.28,3.69-0.28C46.98,34.41,48.02,34.49,49.03,34.62"/>
		<path class="st4" d="M37.91,16.71c-2.36,0.5-4.63,1.23-6.8,2.16v20.62c2.03-1.58,4.32-2.84,6.8-3.71V16.71z"/>
		<path class="st4" d="M26.78,21.09c-2.47,1.47-4.75,3.23-6.8,5.22v25.18h2.82c0.86-2.8,2.22-5.39,3.98-7.66V21.09z"/>
		<path class="st4" d="M15.66,31.35c-4.08,5.71-6.56,12.64-6.8,20.14h6.8V31.35z"/>
		<path class="st5" d="M70.12,58.61c0,13.36-10.83,24.19-24.19,24.19c-13.36,0-24.19-10.83-24.19-24.19c0-1.62,0.16-3.19,0.46-4.72
			H8.86c0.63,19.76,16.85,35.59,36.77,35.59c19.92,0,36.13-15.83,36.77-35.59H69.66C69.96,55.41,70.12,56.99,70.12,58.61"/>
		<path class="st3" d="M45.85,80.72c-12.24,0-22.19-9.96-22.19-22.19c0-12.24,9.96-22.2,22.19-22.2c12.24,0,22.19,9.96,22.19,22.2
			C68.04,70.76,58.08,80.72,45.85,80.72 M45.85,36.89c-11.93,0-21.63,9.7-21.63,21.63c0,11.93,9.7,21.63,21.63,21.63
			c11.93,0,21.63-9.7,21.63-21.63C67.48,46.6,57.77,36.89,45.85,36.89"/>
		<path class="st3" d="M66.29,58.61c0,11.26-9.13,20.39-20.4,20.39C34.63,79,25.5,69.87,25.5,58.61c0-11.26,9.13-20.4,20.39-20.4
			C57.16,38.21,66.29,47.34,66.29,58.61"/>
		<path class="st5" d="M61.52,53.94c-0.86-0.86-2.3-2.14-3.48-2.88v-1.41l-2.01,1.42v9.38h-1.98l0.73,2.06h1.25v10.66l2.01-1.42
			v-9.24h2.4c2.01,0,3.52-1.47,3.52-3.48C63.97,57.27,62.95,55.41,61.52,53.94 M60.44,60.45h-2.4v-6.69
			c0.45,0.33,1.35,1.03,2.26,1.9c1.08,1.08,1.85,2.39,1.85,3.57C62.15,59.97,61.47,60.45,60.44,60.45"/>
		<path class="st5" d="M39.91,51.11v-9.24l-2.05,1.43v8.49c0,1.42-0.79,2.35-2.01,2.35h-2.44v-4.78v-0.03h-0.16l-5.42,4.9v1.91h3.57
			v13.13l2.01-1.42V56.16h2.83c0.98,0,1.62,0.59,1.62,1.52v17.65l2-1.42V57.83c0-1.86-0.93-2.75-1.91-2.84
			C39.95,54.35,39.91,52.44,39.91,51.11 M29.4,54.15l1.99-1.76v1.76H29.4z"/>
		<path class="st5" d="M44.95,47.5l0,4.48V66.5c0,0.6-0.46,0.92-0.91,0.92c-0.53,0-0.83-0.33-0.83-0.92V53.21l-1.99,1.42v12.01
			l0,0.03c-0.17,0.44-0.65,0.75-1.2,0.75h-2.35c-0.65,0-1.08-0.43-1.08-1.08v-8.2l-1.81,1.29v7.25c0,1.53,1.27,2.6,3.09,2.6h1.91
			c0.77,0,1.49-0.47,1.92-1.01c0.48,0.69,1.31,1.08,2.4,1.08c1.6,0,2.85-1.34,2.85-3.06V46.09L44.95,47.5z"/>
		<path class="st5" d="M46.89,71.86c0,0.42,0.26,0.69,0.76,0.69c0.47,0,1.56-0.54,2.99-1.57c1.14-0.82,1.63-1.29,1.9-1.61
			c0.29-0.34,0.35-0.77,0.35-1.26c0-0.51-0.25-1.11-0.44-1.55l-4.43-11.82c0,0-0.3-0.73-0.3-1.56c0-0.51,0.07-1.35,0.92-2.53
			c0.62-0.86,1.58-1.76,3.14-2.9c2.37-1.72,4.15-2.28,4.84-2.28c0.78,0,1.31,0.76,1.31,1.45v1.35l-2.01,1.38v-1.69
			c0-0.2-0.08-0.34-0.22-0.34c-0.34,0-1.61,0.78-2.97,1.77c-1.12,0.81-1.96,1.67-2.26,2.18c-0.28,0.49-0.4,1.02-0.4,1.52
			c0,0.44,0.29,1.18,0.49,1.67l3.81,10.5c0.34,0.83,0.83,2.11,0.83,2.8c0,0.88-0.25,1.7-0.9,2.37c-0.64,0.66-0.99,1.06-2.36,2.04
			c-1.38,0.98-3.07,1.98-4.68,1.98c-1.27,0-2.28-0.98-2.28-2.33c0-1.24,0.88-2.11,1.82-2.75c0.58-0.41,2.5-1.76,2.61-1.85l0,2.01
			l-2.07,1.54C47,71.27,46.89,71.61,46.89,71.86"/>
	</g>
	<g>
		<polygon class="st5" points="107.82,75.36 107.54,78.38 94.89,78.38 94.89,59.05 107.11,59.05 107.11,62.04 99.14,62.04 
			99.14,67.08 105.61,67.08 105.61,70.04 99.14,70.04 99.14,75.36 		"/>
		<path class="st5" d="M123.76,71.08c-1.34,0.79-3.14,1.13-5.38,1.13h-2.54v6.17h-4.25V62.04h-1.86v-2.99h7.91
			c2.56,0,4.58,0.21,6.14,1.07c1.71,0.95,2.72,2.6,2.72,5.38C126.51,68.21,125.56,70.04,123.76,71.08 M120.85,62.71
			c-0.79-0.52-1.62-0.67-3.12-0.67h-1.89v7.27h1.96c2.78,0,4.34-0.76,4.34-3.73C122.14,64.3,121.74,63.29,120.85,62.71"/>
		<polygon class="st5" points="141.87,62.04 133.89,62.04 133.89,67.08 140.4,67.08 140.4,70.04 133.89,70.04 133.89,78.38 
			129.65,78.38 129.65,59.05 141.87,59.05 		"/>
	</g>
	<g>
		<path class="st5" d="M110.83,46.67c-0.52,0.34-1.65,0.64-2.6,0.64c-1.83,0-2.9-0.85-4.06-2.96l-2.84-5.19h-2.2v7.91h-4.25V27.74
			h4.25v8h2.44l4.12-8h4.27l-5.01,9.44l3.33,6.05c0.43,0.76,0.8,1.13,1.53,1.13c0.43,0,1.01-0.18,1.25-0.37L110.83,46.67z"/>
		<path class="st5" d="M137.52,27.74l-5.8,19.33h-3.88l-2.9-9.8l-3.05,9.8h-3.79l-6.11-19.33h4.24l3.66,12.09
			c0.18,0.64,0.43,1.62,0.43,2.23h0.03c0.03-0.64,0.24-1.65,0.4-2.17l2.56-8.06l-1.22-4.09h4l3.45,12.03
			c0.18,0.64,0.37,1.62,0.37,2.29h0.06c0.03-0.67,0.21-1.68,0.37-2.32l3.14-12H137.52z"/>
		<path class="st5" d="M146.04,47.37c-2.08,0-4.31-0.46-6.08-1.22l0.18-3.51c1.62,0.92,3.97,1.59,5.71,1.59
			c1.95,0,3.42-0.7,3.42-2.26c0-3.88-9.5-1.59-9.5-8.71c0-3.54,2.6-5.86,7.33-5.86c1.74,0,3.72,0.43,4.92,0.82l-0.15,3.24
			c-1.44-0.55-3.03-0.95-4.49-0.95c-2.29,0-3.51,0.86-3.51,2.23c0,3.73,9.53,1.56,9.53,8.71C153.4,45.57,150.16,47.37,146.04,47.37"
			/>
		<path class="st5" d="M169.3,39.77c-1.34,0.79-3.14,1.13-5.37,1.13h-2.53v6.17h-4.25V30.73h-1.86v-2.99h7.91
			c2.57,0,4.58,0.21,6.14,1.07c1.71,0.95,2.72,2.6,2.72,5.38C172.05,36.9,171.11,38.73,169.3,39.77 M166.4,31.4
			c-0.79-0.52-1.62-0.67-3.12-0.67h-1.89V38h1.95c2.78,0,4.34-0.76,4.34-3.73C167.68,32.99,167.29,31.98,166.4,31.4"/>
	</g>
	<rect x="94.89" y="52.46" class="st4" width="76.71" height="1.3"/>
</g>
</svg>
